<svg width="941" height="374" viewBox="0 0 941 374" fill="none" xmlns="http://www.w3.org/2000/svg">
<path d="M0 0V18.8005V37.4574V56.2579H18.8309H37.518V74.9148H56.3488H75.0359V93.7153H93.8668H112.554V112.372H131.241H150.072V130.886H168.759H187.59V149.686H206.277H225.108V168.343H243.795H262.626V187V205.657H243.795H225.108V224.457H206.277H187.59V243.114H168.759H150.072V261.771H131.241H112.554V280.428H93.8668H75.0359V299.085H56.3488H37.518V317.886H18.8309H0V336.543V355.2V374H18.8309H37.518V355.2H56.3488H75.0359V336.543H93.8668H112.554V317.886H131.241H150.072V299.229H168.759H187.59V280.572H206.277H225.108V261.915H243.795H262.626V243.114H281.313H300V224.457V205.8V187V168.343V149.543V130.886H281.313H262.626V112.229H243.795H225.108V93.4282H206.277H187.59V74.7713H168.759H150.072V56.1143H131.241H112.554V37.4574H93.8668H75.0359V18.8005H56.3488H37.518V0H18.8309H0Z" fill="#175F52"/>
<path d="M445.61 284.463V293H437.073V284.463H445.61ZM445.61 275.927V284.463H437.073V275.927H445.61ZM445.61 267.39V275.927H437.073V267.39H445.61ZM445.61 258.854V267.39H437.073V258.854H445.61ZM445.61 250.317V258.854H437.073V250.317H445.61ZM445.61 241.78V250.317H437.073V241.78H445.61ZM445.61 233.244V241.78H437.073V233.244H445.61ZM445.61 224.707V233.244H437.073V224.707H445.61ZM445.61 216.171V224.707H437.073V216.171H445.61ZM445.61 207.634V216.171H437.073V207.634H445.61ZM445.61 199.098V207.634H437.073V199.098H445.61ZM445.61 190.561V199.098H437.073V190.561H445.61ZM445.61 182.024V190.561H437.073V182.024H445.61ZM445.61 173.488V182.024H437.073V173.488H445.61ZM445.61 164.951V173.488H437.073V164.951H445.61ZM454.146 164.951V173.488H445.61V164.951H454.146ZM454.146 173.488V182.024H445.61V173.488H454.146ZM454.146 182.024V190.561H445.61V182.024H454.146ZM454.146 190.561V199.098H445.61V190.561H454.146ZM454.146 199.098V207.634H445.61V199.098H454.146ZM454.146 207.634V216.171H445.61V207.634H454.146ZM454.146 216.171V224.707H445.61V216.171H454.146ZM462.683 224.707V233.244H454.146V224.707H462.683ZM462.683 233.244V241.78H454.146V233.244H462.683ZM462.683 241.78V250.317H454.146V241.78H462.683ZM462.683 250.317V258.854H454.146V250.317H462.683ZM462.683 258.854V267.39H454.146V258.854H462.683ZM462.683 267.39V275.927H454.146V267.39H462.683ZM462.683 275.927V284.463H454.146V275.927H462.683ZM462.683 284.463V293H454.146V284.463H462.683ZM471.22 284.463V293H462.683V284.463H471.22ZM479.756 284.463V293H471.22V284.463H479.756ZM479.756 275.927V284.463H471.22V275.927H479.756ZM479.756 267.39V275.927H471.22V267.39H479.756ZM479.756 258.854V267.39H471.22V258.854H479.756ZM479.756 250.317V258.854H471.22V250.317H479.756ZM479.756 241.78V250.317H471.22V241.78H479.756ZM479.756 233.244V241.78H471.22V233.244H479.756ZM479.756 224.707V233.244H471.22V224.707H479.756ZM471.22 224.707V233.244H462.683V224.707H471.22ZM471.22 216.171V224.707H462.683V216.171H471.22ZM471.22 233.244V241.78H462.683V233.244H471.22ZM471.22 241.78V250.317H462.683V241.78H471.22ZM471.22 250.317V258.854H462.683V250.317H471.22ZM471.22 258.854V267.39H462.683V258.854H471.22ZM471.22 267.39V275.927H462.683V267.39H471.22ZM471.22 275.927V284.463H462.683V275.927H471.22ZM454.146 284.463V293H445.61V284.463H454.146ZM454.146 275.927V284.463H445.61V275.927H454.146ZM454.146 267.39V275.927H445.61V267.39H454.146ZM454.146 258.854V267.39H445.61V258.854H454.146ZM454.146 250.317V258.854H445.61V250.317H454.146ZM454.146 241.78V250.317H445.61V241.78H454.146ZM454.146 233.244V241.78H445.61V233.244H454.146ZM454.146 224.707V233.244H445.61V224.707H454.146ZM445.61 79.5854V88.122H437.073V79.5854H445.61ZM445.61 88.122V96.6585H437.073V88.122H445.61ZM445.61 96.6585V105.195H437.073V96.6585H445.61ZM445.61 105.195V113.732H437.073V105.195H445.61ZM445.61 113.732V122.268H437.073V113.732H445.61ZM445.61 122.268V130.805H437.073V122.268H445.61ZM445.61 130.805V139.341H437.073V130.805H445.61ZM445.61 139.341V147.878H437.073V139.341H445.61ZM445.61 147.878V156.415H437.073V147.878H445.61ZM445.61 156.415V164.951H437.073V156.415H445.61ZM471.22 79.5854V88.122H462.683V79.5854H471.22ZM471.22 88.122V96.6585H462.683V88.122H471.22ZM471.22 96.6585V105.195H462.683V96.6585H471.22ZM471.22 105.195V113.732H462.683V105.195H471.22ZM471.22 113.732V122.268H462.683V113.732H471.22ZM471.22 122.268V130.805H462.683V122.268H471.22ZM471.22 139.341V147.878H462.683V139.341H471.22ZM471.22 147.878V156.415H462.683V147.878H471.22ZM471.22 156.415V164.951H462.683V156.415H471.22ZM471.22 164.951V173.488H462.683V164.951H471.22ZM471.22 173.488V182.024H462.683V173.488H471.22ZM471.22 182.024V190.561H462.683V182.024H471.22ZM471.22 190.561V199.098H462.683V190.561H471.22ZM479.756 199.098V207.634H471.22V199.098H479.756ZM479.756 207.634V216.171H471.22V207.634H479.756ZM479.756 216.171V224.707H471.22V216.171H479.756ZM479.756 190.561V199.098H471.22V190.561H479.756ZM479.756 182.024V190.561H471.22V182.024H479.756ZM479.756 173.488V182.024H471.22V173.488H479.756ZM479.756 164.951V173.488H471.22V164.951H479.756ZM479.756 156.415V164.951H471.22V156.415H479.756ZM479.756 147.878V156.415H471.22V147.878H479.756ZM479.756 139.341V147.878H471.22V139.341H479.756ZM479.756 130.805V139.341H471.22V130.805H479.756ZM479.756 122.268V130.805H471.22V122.268H479.756ZM479.756 113.732V122.268H471.22V113.732H479.756ZM471.22 130.805V139.341H462.683V130.805H471.22ZM479.756 105.195V113.732H471.22V105.195H479.756ZM479.756 96.6585V105.195H471.22V96.6585H479.756ZM479.756 88.122V96.6585H471.22V88.122H479.756ZM479.756 79.5854V88.122H471.22V79.5854H479.756ZM462.683 79.5854V88.122H454.146V79.5854H462.683ZM454.146 79.5854V88.122H445.61V79.5854H454.146ZM454.146 88.122V96.6585H445.61V88.122H454.146ZM462.683 88.122V96.6585H454.146V88.122H462.683ZM462.683 96.6585V105.195H454.146V96.6585H462.683ZM462.683 105.195V113.732H454.146V105.195H462.683ZM462.683 113.732V122.268H454.146V113.732H462.683ZM462.683 122.268V130.805H454.146V122.268H462.683ZM462.683 130.805V139.341H454.146V130.805H462.683ZM462.683 139.341V147.878H454.146V139.341H462.683ZM454.146 147.878V156.415H445.61V147.878H454.146ZM454.146 156.415V164.951H445.61V156.415H454.146ZM454.146 139.341V147.878H445.61V139.341H454.146ZM454.146 130.805V139.341H445.61V130.805H454.146ZM454.146 122.268V130.805H445.61V122.268H454.146ZM454.146 113.732V122.268H445.61V113.732H454.146ZM454.146 105.195V113.732H445.61V105.195H454.146ZM454.146 96.6585V105.195H445.61V96.6585H454.146ZM462.683 147.878V156.415H454.146V147.878H462.683ZM462.683 156.415V164.951H454.146V156.415H462.683ZM462.683 164.951V173.488H454.146V164.951H462.683ZM462.683 173.488V182.024H454.146V173.488H462.683ZM462.683 182.024V190.561H454.146V182.024H462.683ZM462.683 190.561V199.098H454.146V190.561H462.683ZM462.683 199.098V207.634H454.146V199.098H462.683ZM462.683 207.634V216.171H454.146V207.634H462.683ZM462.683 216.171V224.707H454.146V216.171H462.683ZM471.22 207.634V216.171H462.683V207.634H471.22ZM471.22 199.098V207.634H462.683V199.098H471.22ZM565.122 79.5854V88.122H556.585V79.5854H565.122ZM565.122 88.122V96.6585H556.585V88.122H565.122ZM565.122 96.6585V105.195H556.585V96.6585H565.122ZM565.122 113.732V122.268H556.585V113.732H565.122ZM565.122 122.268V130.805H556.585V122.268H565.122ZM565.122 130.805V139.341H556.585V130.805H565.122ZM565.122 139.341V147.878H556.585V139.341H565.122ZM565.122 147.878V156.415H556.585V147.878H565.122ZM565.122 156.415V164.951H556.585V156.415H565.122ZM565.122 164.951V173.488H556.585V164.951H565.122ZM573.659 173.488V182.024H565.122V173.488H573.659ZM573.659 182.024V190.561H565.122V182.024H573.659ZM573.659 190.561V199.098H565.122V190.561H573.659ZM573.659 199.098V207.634H565.122V199.098H573.659ZM573.659 207.634V216.171H565.122V207.634H573.659ZM573.659 216.171V224.707H565.122V216.171H573.659ZM582.195 216.171V224.707H573.659V216.171H582.195ZM582.195 224.707V233.244H573.659V224.707H582.195ZM582.195 233.244V241.78H573.659V233.244H582.195ZM582.195 241.78V250.317H573.659V241.78H582.195ZM582.195 250.317V258.854H573.659V250.317H582.195ZM582.195 258.854V267.39H573.659V258.854H582.195ZM582.195 267.39V275.927H573.659V267.39H582.195ZM582.195 275.927V284.463H573.659V275.927H582.195ZM582.195 284.463V293H573.659V284.463H582.195ZM573.659 284.463V293H565.122V284.463H573.659ZM573.659 275.927V284.463H565.122V275.927H573.659ZM573.659 267.39V275.927H565.122V267.39H573.659ZM573.659 258.854V267.39H565.122V258.854H573.659ZM573.659 250.317V258.854H565.122V250.317H573.659ZM573.659 241.78V250.317H565.122V241.78H573.659ZM573.659 233.244V241.78H565.122V233.244H573.659ZM565.122 233.244V241.78H556.585V233.244H565.122ZM565.122 224.707V233.244H556.585V224.707H565.122ZM573.659 224.707V233.244H565.122V224.707H573.659ZM565.122 173.488V182.024H556.585V173.488H565.122ZM565.122 182.024V190.561H556.585V182.024H565.122ZM565.122 190.561V199.098H556.585V190.561H565.122ZM565.122 199.098V207.634H556.585V199.098H565.122ZM565.122 207.634V216.171H556.585V207.634H565.122ZM565.122 216.171V224.707H556.585V216.171H565.122ZM565.122 105.195V113.732H556.585V105.195H565.122ZM565.122 241.78V250.317H556.585V241.78H565.122ZM565.122 250.317V258.854H556.585V250.317H565.122ZM565.122 258.854V267.39H556.585V258.854H565.122ZM565.122 267.39V275.927H556.585V267.39H565.122ZM565.122 275.927V284.463H556.585V275.927H565.122ZM565.122 284.463V293H556.585V284.463H565.122ZM590.732 284.463V293H582.195V284.463H590.732ZM599.268 284.463V293H590.732V284.463H599.268ZM599.268 275.927V284.463H590.732V275.927H599.268ZM599.268 267.39V275.927H590.732V267.39H599.268ZM599.268 258.854V267.39H590.732V258.854H599.268ZM599.268 250.317V258.854H590.732V250.317H599.268ZM599.268 241.78V250.317H590.732V241.78H599.268ZM599.268 233.244V241.78H590.732V233.244H599.268ZM599.268 224.707V233.244H590.732V224.707H599.268ZM599.268 216.171V224.707H590.732V216.171H599.268ZM599.268 207.634V216.171H590.732V207.634H599.268ZM599.268 199.098V207.634H590.732V199.098H599.268ZM599.268 190.561V199.098H590.732V190.561H599.268ZM599.268 182.024V190.561H590.732V182.024H599.268ZM599.268 173.488V182.024H590.732V173.488H599.268ZM599.268 164.951V173.488H590.732V164.951H599.268ZM599.268 156.415V164.951H590.732V156.415H599.268ZM599.268 147.878V156.415H590.732V147.878H599.268ZM599.268 139.341V147.878H590.732V139.341H599.268ZM599.268 130.805V139.341H590.732V130.805H599.268ZM573.659 79.5854V88.122H565.122V79.5854H573.659ZM582.195 79.5854V88.122H573.659V79.5854H582.195ZM590.732 79.5854V88.122H582.195V79.5854H590.732ZM599.268 79.5854V88.122H590.732V79.5854H599.268ZM599.268 88.122V96.6585H590.732V88.122H599.268ZM599.268 96.6585V105.195H590.732V96.6585H599.268ZM599.268 105.195V113.732H590.732V105.195H599.268ZM599.268 113.732V122.268H590.732V113.732H599.268ZM599.268 122.268V130.805H590.732V122.268H599.268ZM573.659 88.122V96.6585H565.122V88.122H573.659ZM582.195 88.122V96.6585H573.659V88.122H582.195ZM590.732 88.122V96.6585H582.195V88.122H590.732ZM590.732 96.6585V105.195H582.195V96.6585H590.732ZM590.732 105.195V113.732H582.195V105.195H590.732ZM590.732 113.732V122.268H582.195V113.732H590.732ZM590.732 122.268V130.805H582.195V122.268H590.732ZM582.195 122.268V130.805H573.659V122.268H582.195ZM582.195 113.732V122.268H573.659V113.732H582.195ZM582.195 105.195V113.732H573.659V105.195H582.195ZM582.195 96.6585V105.195H573.659V96.6585H582.195ZM573.659 96.6585V105.195H565.122V96.6585H573.659ZM573.659 105.195V113.732H565.122V105.195H573.659ZM573.659 113.732V122.268H565.122V113.732H573.659ZM573.659 122.268V130.805H565.122V122.268H573.659ZM573.659 130.805V139.341H565.122V130.805H573.659ZM573.659 139.341V147.878H565.122V139.341H573.659ZM573.659 147.878V156.415H565.122V147.878H573.659ZM573.659 156.415V164.951H565.122V156.415H573.659ZM582.195 156.415V164.951H573.659V156.415H582.195ZM582.195 147.878V156.415H573.659V147.878H582.195ZM582.195 139.341V147.878H573.659V139.341H582.195ZM582.195 130.805V139.341H573.659V130.805H582.195ZM590.732 130.805V139.341H582.195V130.805H590.732ZM590.732 139.341V147.878H582.195V139.341H590.732ZM590.732 147.878V156.415H582.195V147.878H590.732ZM590.732 156.415V164.951H582.195V156.415H590.732ZM590.732 164.951V173.488H582.195V164.951H590.732ZM590.732 173.488V182.024H582.195V173.488H590.732ZM590.732 182.024V190.561H582.195V182.024H590.732ZM590.732 190.561V199.098H582.195V190.561H590.732ZM590.732 199.098V207.634H582.195V199.098H590.732ZM590.732 207.634V216.171H582.195V207.634H590.732ZM582.195 207.634V216.171H573.659V207.634H582.195ZM582.195 199.098V207.634H573.659V199.098H582.195ZM582.195 190.561V199.098H573.659V190.561H582.195ZM582.195 182.024V190.561H573.659V182.024H582.195ZM582.195 173.488V182.024H573.659V173.488H582.195ZM573.659 164.951V173.488H565.122V164.951H573.659ZM582.195 164.951V173.488H573.659V164.951H582.195ZM590.732 216.171V224.707H582.195V216.171H590.732ZM590.732 224.707V233.244H582.195V224.707H590.732ZM590.732 233.244V241.78H582.195V233.244H590.732ZM590.732 241.78V250.317H582.195V241.78H590.732ZM590.732 250.317V258.854H582.195V250.317H590.732ZM590.732 258.854V267.39H582.195V258.854H590.732ZM590.732 267.39V275.927H582.195V267.39H590.732ZM590.732 275.927V284.463H582.195V275.927H590.732ZM496.829 105.195V113.732H488.293V105.195H496.829ZM496.829 113.732V122.268H488.293V113.732H496.829ZM505.366 122.268V130.805H496.829V122.268H505.366ZM505.366 130.805V139.341H496.829V130.805H505.366ZM513.902 139.341V147.878H505.366V139.341H513.902ZM513.902 147.878V156.415H505.366V147.878H513.902ZM522.439 156.415V164.951H513.902V156.415H522.439ZM522.439 164.951V173.488H513.902V164.951H522.439ZM530.976 173.488V182.024H522.439V173.488H530.976ZM530.976 182.024V190.561H522.439V182.024H530.976ZM539.512 190.561V199.098H530.976V190.561H539.512ZM539.512 199.098V207.634H530.976V199.098H539.512ZM548.049 207.634V216.171H539.512V207.634H548.049ZM548.049 216.171V224.707H539.512V216.171H548.049ZM556.585 224.707V233.244H548.049V224.707H556.585ZM556.585 233.244V241.78H548.049V233.244H556.585ZM496.829 122.268V130.805H488.293V122.268H496.829ZM496.829 130.805V139.341H488.293V130.805H496.829ZM496.829 139.341V147.878H488.293V139.341H496.829ZM496.829 147.878V156.415H488.293V147.878H496.829ZM496.829 156.415V164.951H488.293V156.415H496.829ZM505.366 139.341V147.878H496.829V139.341H505.366ZM505.366 147.878V156.415H496.829V147.878H505.366ZM505.366 156.415V164.951H496.829V156.415H505.366ZM505.366 164.951V173.488H496.829V164.951H505.366ZM505.366 173.488V182.024H496.829V173.488H505.366ZM513.902 156.415V164.951H505.366V156.415H513.902ZM513.902 164.951V173.488H505.366V164.951H513.902ZM513.902 173.488V182.024H505.366V173.488H513.902ZM513.902 182.024V190.561H505.366V182.024H513.902ZM513.902 190.561V199.098H505.366V190.561H513.902ZM522.439 173.488V182.024H513.902V173.488H522.439ZM522.439 182.024V190.561H513.902V182.024H522.439ZM522.439 190.561V199.098H513.902V190.561H522.439ZM522.439 199.098V207.634H513.902V199.098H522.439ZM522.439 207.634V216.171H513.902V207.634H522.439ZM530.976 190.561V199.098H522.439V190.561H530.976ZM530.976 199.098V207.634H522.439V199.098H530.976ZM530.976 207.634V216.171H522.439V207.634H530.976ZM530.976 216.171V224.707H522.439V216.171H530.976ZM530.976 224.707V233.244H522.439V224.707H530.976ZM539.512 207.634V216.171H530.976V207.634H539.512ZM539.512 216.171V224.707H530.976V216.171H539.512ZM539.512 224.707V233.244H530.976V224.707H539.512ZM539.512 233.244V241.78H530.976V233.244H539.512ZM539.512 241.78V250.317H530.976V241.78H539.512ZM548.049 224.707V233.244H539.512V224.707H548.049ZM548.049 233.244V241.78H539.512V233.244H548.049ZM548.049 241.78V250.317H539.512V241.78H548.049ZM548.049 250.317V258.854H539.512V250.317H548.049ZM548.049 258.854V267.39H539.512V258.854H548.049ZM556.585 241.78V250.317H548.049V241.78H556.585ZM556.585 250.317V258.854H548.049V250.317H556.585ZM556.585 258.854V267.39H548.049V258.854H556.585ZM556.585 267.39V275.927H548.049V267.39H556.585ZM556.585 275.927V284.463H548.049V275.927H556.585ZM496.829 164.951V173.488H488.293V164.951H496.829ZM505.366 182.024V190.561H496.829V182.024H505.366ZM513.902 199.098V207.634H505.366V199.098H513.902ZM522.439 216.171V224.707H513.902V216.171H522.439ZM530.976 233.244V241.78H522.439V233.244H530.976ZM539.512 250.317V258.854H530.976V250.317H539.512ZM548.049 267.39V275.927H539.512V267.39H548.049ZM556.585 284.463V293H548.049V284.463H556.585ZM496.829 96.6585V105.195H488.293V96.6585H496.829ZM505.366 113.732V122.268H496.829V113.732H505.366ZM513.902 130.805V139.341H505.366V130.805H513.902ZM522.439 147.878V156.415H513.902V147.878H522.439ZM530.976 164.951V173.488H522.439V164.951H530.976ZM539.512 182.024V190.561H530.976V182.024H539.512ZM548.049 199.098V207.634H539.512V199.098H548.049ZM556.585 216.171V224.707H548.049V216.171H556.585ZM488.293 79.5854V88.122H479.756V79.5854H488.293ZM488.293 88.122V96.6585H479.756V88.122H488.293ZM488.293 96.6585V105.195H479.756V96.6585H488.293ZM488.293 105.195V113.732H479.756V105.195H488.293ZM488.293 113.732V122.268H479.756V113.732H488.293ZM488.293 122.268V130.805H479.756V122.268H488.293ZM488.293 130.805V139.341H479.756V130.805H488.293ZM488.293 139.341V147.878H479.756V139.341H488.293ZM488.293 147.878V156.415H479.756V147.878H488.293ZM488.293 156.415V164.951H479.756V156.415H488.293ZM496.829 173.488V182.024H488.293V173.488H496.829ZM505.366 190.561V199.098H496.829V190.561H505.366ZM513.902 207.634V216.171H505.366V207.634H513.902ZM522.439 224.707V233.244H513.902V224.707H522.439ZM530.976 241.78V250.317H522.439V241.78H530.976ZM539.512 258.854V267.39H530.976V258.854H539.512ZM548.049 275.927V284.463H539.512V275.927H548.049ZM496.829 88.122V96.6585H488.293V88.122H496.829ZM505.366 105.195V113.732H496.829V105.195H505.366ZM513.902 122.268V130.805H505.366V122.268H513.902ZM522.439 139.341V147.878H513.902V139.341H522.439ZM530.976 156.415V164.951H522.439V156.415H530.976ZM539.512 173.488V182.024H530.976V173.488H539.512ZM548.049 190.561V199.098H539.512V190.561H548.049ZM556.585 207.634V216.171H548.049V207.634H556.585ZM727.167 182.024V190.561H718.63V182.024H727.167ZM735.704 182.024V190.561H727.167V182.024H735.704ZM744.24 182.024V190.561H735.704V182.024H744.24ZM752.777 182.024V190.561H744.24V182.024H752.777ZM761.313 182.024V190.561H752.777V182.024H761.313ZM761.313 173.488V182.024H752.777V173.488H761.313ZM761.313 164.951V173.488H752.777V164.951H761.313ZM752.777 164.951V173.488H744.24V164.951H752.777ZM744.24 164.951V173.488H735.704V164.951H744.24ZM735.704 164.951V173.488H727.167V164.951H735.704ZM735.704 173.488V182.024H727.167V173.488H735.704ZM727.167 173.488V182.024H718.63V173.488H727.167ZM744.24 173.488V182.024H735.704V173.488H744.24ZM752.777 173.488V182.024H744.24V173.488H752.777ZM727.167 164.951V173.488H718.63V164.951H727.167ZM718.63 164.951V173.488H710.094V164.951H718.63ZM718.63 156.415V164.951H710.094V156.415H718.63ZM727.167 156.415V164.951H718.63V156.415H727.167ZM735.704 156.415V164.951H727.167V156.415H735.704ZM744.24 156.415V164.951H735.704V156.415H744.24ZM752.777 156.415V164.951H744.24V156.415H752.777ZM752.777 147.878V156.415H744.24V147.878H752.777ZM744.24 147.878V156.415H735.704V147.878H744.24ZM735.704 147.878V156.415H727.167V147.878H735.704ZM727.167 147.878V156.415H718.63V147.878H727.167ZM718.63 147.878V156.415H710.094V147.878H718.63ZM735.704 139.341V147.878H727.167V139.341H735.704ZM744.24 139.341V147.878H735.704V139.341H744.24ZM727.167 139.341V147.878H718.63V139.341H727.167ZM727.167 130.805V139.341H718.63V130.805H727.167ZM718.63 130.805V139.341H710.094V130.805H718.63ZM718.63 139.341V147.878H710.094V139.341H718.63ZM710.094 139.341V147.878H701.557V139.341H710.094ZM710.094 130.805V139.341H701.557V130.805H710.094ZM710.094 147.878V156.415H701.557V147.878H710.094ZM701.557 147.878V156.415H693.021V147.878H701.557ZM701.557 156.415V164.951H693.021V156.415H701.557ZM710.094 156.415V164.951H701.557V156.415H710.094ZM693.021 156.415V164.951H684.484V156.415H693.021ZM693.021 147.878V156.415H684.484V147.878H693.021ZM693.021 139.341V147.878H684.484V139.341H693.021ZM693.021 130.805V139.341H684.484V130.805H693.021ZM701.557 130.805V139.341H693.021V130.805H701.557ZM701.557 139.341V147.878H693.021V139.341H701.557ZM684.484 130.805V139.341H675.948V130.805H684.484ZM675.948 130.805V139.341H667.411V130.805H675.948ZM667.411 130.805V139.341H658.874V130.805H667.411ZM667.411 139.341V147.878H658.874V139.341H667.411ZM667.411 147.878V156.415H658.874V147.878H667.411ZM667.411 156.415V164.951H658.874V156.415H667.411ZM675.948 156.415V164.951H667.411V156.415H675.948ZM684.484 156.415V164.951H675.948V156.415H684.484ZM684.484 147.878V156.415H675.948V147.878H684.484ZM684.484 139.341V147.878H675.948V139.341H684.484ZM675.948 139.341V147.878H667.411V139.341H675.948ZM675.948 147.878V156.415H667.411V147.878H675.948ZM658.874 147.878V156.415H650.338V147.878H658.874ZM658.874 139.341V147.878H650.338V139.341H658.874ZM650.338 139.341V147.878H641.801V139.341H650.338ZM650.338 147.878V156.415H641.801V147.878H650.338ZM641.801 147.878V156.415H633.265V147.878H641.801ZM641.801 156.415V164.951H633.265V156.415H641.801ZM641.801 164.951V173.488H633.265V164.951H641.801ZM650.338 164.951V173.488H641.801V164.951H650.338ZM650.338 156.415V164.951H641.801V156.415H650.338ZM658.874 156.415V164.951H650.338V156.415H658.874ZM658.874 164.951V173.488H650.338V164.951H658.874ZM667.411 164.951V173.488H658.874V164.951H667.411ZM675.948 164.951V173.488H667.411V164.951H675.948ZM633.265 164.951V173.488H624.728V164.951H633.265ZM633.265 173.488V182.024H624.728V173.488H633.265ZM633.265 182.024V190.561H624.728V182.024H633.265ZM633.265 190.561V199.098H624.728V190.561H633.265ZM633.265 199.098V207.634H624.728V199.098H633.265ZM633.265 207.634V216.171H624.728V207.634H633.265ZM633.265 216.171V224.707H624.728V216.171H633.265ZM633.265 224.707V233.244H624.728V224.707H633.265ZM633.265 233.244V241.78H624.728V233.244H633.265ZM633.265 241.78V250.317H624.728V241.78H633.265ZM641.801 241.78V250.317H633.265V241.78H641.801ZM641.801 250.317V258.854H633.265V250.317H641.801ZM633.265 250.317V258.854H624.728V250.317H633.265ZM650.338 250.317V258.854H641.801V250.317H650.338ZM658.874 250.317V258.854H650.338V250.317H658.874ZM667.411 250.317V258.854H658.874V250.317H667.411ZM675.948 250.317V258.854H667.411V250.317H675.948ZM667.411 241.78V250.317H658.874V241.78H667.411ZM667.411 233.244V241.78H658.874V233.244H667.411ZM667.411 224.707V233.244H658.874V224.707H667.411ZM667.411 216.171V224.707H658.874V216.171H667.411ZM667.411 207.634V216.171H658.874V207.634H667.411ZM667.411 199.098V207.634H658.874V199.098H667.411ZM667.411 190.561V199.098H658.874V190.561H667.411ZM667.411 182.024V190.561H658.874V182.024H667.411ZM667.411 173.488V182.024H658.874V173.488H667.411ZM658.874 173.488V182.024H650.338V173.488H658.874ZM650.338 173.488V182.024H641.801V173.488H650.338ZM641.801 173.488V182.024H633.265V173.488H641.801ZM641.801 182.024V190.561H633.265V182.024H641.801ZM641.801 190.561V199.098H633.265V190.561H641.801ZM641.801 199.098V207.634H633.265V199.098H641.801ZM641.801 207.634V216.171H633.265V207.634H641.801ZM641.801 216.171V224.707H633.265V216.171H641.801ZM641.801 224.707V233.244H633.265V224.707H641.801ZM641.801 233.244V241.78H633.265V233.244H641.801ZM650.338 241.78V250.317H641.801V241.78H650.338ZM658.874 241.78V250.317H650.338V241.78H658.874ZM658.874 233.244V241.78H650.338V233.244H658.874ZM658.874 224.707V233.244H650.338V224.707H658.874ZM658.874 216.171V224.707H650.338V216.171H658.874ZM658.874 207.634V216.171H650.338V207.634H658.874ZM650.338 207.634V216.171H641.801V207.634H650.338ZM650.338 199.098V207.634H641.801V199.098H650.338ZM650.338 190.561V199.098H641.801V190.561H650.338ZM650.338 182.024V190.561H641.801V182.024H650.338ZM658.874 182.024V190.561H650.338V182.024H658.874ZM658.874 190.561V199.098H650.338V190.561H658.874ZM658.874 199.098V207.634H650.338V199.098H658.874ZM650.338 224.707V233.244H641.801V224.707H650.338ZM650.338 233.244V241.78H641.801V233.244H650.338ZM650.338 216.171V224.707H641.801V216.171H650.338ZM727.167 241.78V250.317H718.63V241.78H727.167ZM735.704 241.78V250.317H727.167V241.78H735.704ZM744.24 241.78V250.317H735.704V241.78H744.24ZM752.777 241.78V250.317H744.24V241.78H752.777ZM761.313 241.78V250.317H752.777V241.78H761.313ZM761.313 250.317V258.854H752.777V250.317H761.313ZM752.777 250.317V258.854H744.24V250.317H752.777ZM744.24 250.317V258.854H735.704V250.317H744.24ZM735.704 250.317V258.854H727.167V250.317H735.704ZM727.167 250.317V258.854H718.63V250.317H727.167ZM718.63 250.317V258.854H710.094V250.317H718.63ZM718.63 258.854V267.39H710.094V258.854H718.63ZM727.167 258.854V267.39H718.63V258.854H727.167ZM735.704 258.854V267.39H727.167V258.854H735.704ZM744.24 258.854V267.39H735.704V258.854H744.24ZM744.24 267.39V275.927H735.704V267.39H744.24ZM752.777 267.39V275.927H744.24V267.39H752.777ZM752.777 258.854V267.39H744.24V258.854H752.777ZM744.24 275.927V284.463H735.704V275.927H744.24ZM735.704 275.927V284.463H727.167V275.927H735.704ZM735.704 267.39V275.927H727.167V267.39H735.704ZM727.167 267.39V275.927H718.63V267.39H727.167ZM727.167 275.927V284.463H718.63V275.927H727.167ZM727.167 284.463V293H718.63V284.463H727.167ZM718.63 284.463V293H710.094V284.463H718.63ZM710.094 284.463V293H701.557V284.463H710.094ZM701.557 284.463V293H693.021V284.463H701.557ZM693.021 284.463V293H684.484V284.463H693.021ZM684.484 284.463V293H675.948V284.463H684.484ZM675.948 284.463V293H667.411V284.463H675.948ZM667.411 284.463V293H658.874V284.463H667.411ZM675.948 275.927V284.463H667.411V275.927H675.948ZM684.484 275.927V284.463H675.948V275.927H684.484ZM693.021 275.927V284.463H684.484V275.927H693.021ZM701.557 275.927V284.463H693.021V275.927H701.557ZM710.094 275.927V284.463H701.557V275.927H710.094ZM718.63 275.927V284.463H710.094V275.927H718.63ZM718.63 267.39V275.927H710.094V267.39H718.63ZM710.094 267.39V275.927H701.557V267.39H710.094ZM701.557 267.39V275.927H693.021V267.39H701.557ZM693.021 267.39V275.927H684.484V267.39H693.021ZM684.484 267.39V275.927H675.948V267.39H684.484ZM675.948 267.39V275.927H667.411V267.39H675.948ZM667.411 275.927V284.463H658.874V275.927H667.411ZM658.874 275.927V284.463H650.338V275.927H658.874ZM650.338 275.927V284.463H641.801V275.927H650.338ZM650.338 267.39V275.927H641.801V267.39H650.338ZM641.801 267.39V275.927H633.265V267.39H641.801ZM641.801 258.854V267.39H633.265V258.854H641.801ZM650.338 258.854V267.39H641.801V258.854H650.338ZM658.874 258.854V267.39H650.338V258.854H658.874ZM667.411 258.854V267.39H658.874V258.854H667.411ZM675.948 258.854V267.39H667.411V258.854H675.948ZM684.484 258.854V267.39H675.948V258.854H684.484ZM693.021 258.854V267.39H684.484V258.854H693.021ZM701.557 258.854V267.39H693.021V258.854H701.557ZM710.094 258.854V267.39H701.557V258.854H710.094ZM667.411 267.39V275.927H658.874V267.39H667.411ZM658.874 267.39V275.927H650.338V267.39H658.874ZM761.313 190.561V199.098H752.777V190.561H761.313ZM752.777 190.561V199.098H744.24V190.561H752.777ZM744.24 190.561V199.098H735.704V190.561H744.24ZM735.704 190.561V199.098H727.167V190.561H735.704ZM727.167 190.561V199.098H718.63V190.561H727.167ZM761.313 199.098V207.634H752.777V199.098H761.313ZM744.24 199.098V207.634H735.704V199.098H744.24ZM735.704 199.098V207.634H727.167V199.098H735.704ZM718.63 199.098V207.634H710.094V199.098H718.63ZM710.094 199.098V207.634H701.557V199.098H710.094ZM701.557 199.098V207.634H693.021V199.098H701.557ZM693.021 199.098V207.634H684.484V199.098H693.021ZM684.484 199.098V207.634H675.948V199.098H684.484ZM675.948 199.098V207.634H667.411V199.098H675.948ZM727.167 199.098V207.634H718.63V199.098H727.167ZM752.777 199.098V207.634H744.24V199.098H752.777ZM761.313 207.634V216.171H752.777V207.634H761.313ZM752.777 207.634V216.171H744.24V207.634H752.777ZM744.24 207.634V216.171H735.704V207.634H744.24ZM735.704 207.634V216.171H727.167V207.634H735.704ZM727.167 207.634V216.171H718.63V207.634H727.167ZM718.63 207.634V216.171H710.094V207.634H718.63ZM710.094 207.634V216.171H701.557V207.634H710.094ZM701.557 207.634V216.171H693.021V207.634H701.557ZM693.021 207.634V216.171H684.484V207.634H693.021ZM684.484 207.634V216.171H675.948V207.634H684.484ZM675.948 207.634V216.171H667.411V207.634H675.948ZM675.948 216.171V224.707H667.411V216.171H675.948ZM684.484 216.171V224.707H675.948V216.171H684.484ZM693.021 216.171V224.707H684.484V216.171H693.021ZM710.094 216.171V224.707H701.557V216.171H710.094ZM718.63 216.171V224.707H710.094V216.171H718.63ZM727.167 216.171V224.707H718.63V216.171H727.167ZM735.704 216.171V224.707H727.167V216.171H735.704ZM744.24 216.171V224.707H735.704V216.171H744.24ZM752.777 216.171V224.707H744.24V216.171H752.777ZM761.313 216.171V224.707H752.777V216.171H761.313ZM701.557 216.171V224.707H693.021V216.171H701.557ZM795.61 130.805V139.341H787.073V130.805H795.61ZM804.146 130.805V139.341H795.61V130.805H804.146ZM812.683 130.805V139.341H804.146V130.805H812.683ZM812.683 139.341V147.878H804.146V139.341H812.683ZM821.22 139.341V147.878H812.683V139.341H821.22ZM829.756 147.878V156.415H821.22V147.878H829.756ZM829.756 156.415V164.951H821.22V156.415H829.756ZM829.756 139.341V147.878H821.22V139.341H829.756ZM829.756 130.805V139.341H821.22V130.805H829.756ZM821.22 130.805V139.341H812.683V130.805H821.22ZM804.146 139.341V147.878H795.61V139.341H804.146ZM804.146 147.878V156.415H795.61V147.878H804.146ZM795.61 147.878V156.415H787.073V147.878H795.61ZM795.61 139.341V147.878H787.073V139.341H795.61ZM795.61 156.415V164.951H787.073V156.415H795.61ZM795.61 164.951V173.488H787.073V164.951H795.61ZM795.61 173.488V182.024H787.073V173.488H795.61ZM804.146 173.488V182.024H795.61V173.488H804.146ZM812.683 173.488V182.024H804.146V173.488H812.683ZM821.22 173.488V182.024H812.683V173.488H821.22ZM829.756 173.488V182.024H821.22V173.488H829.756ZM829.756 164.951V173.488H821.22V164.951H829.756ZM821.22 164.951V173.488H812.683V164.951H821.22ZM821.22 156.415V164.951H812.683V156.415H821.22ZM821.22 147.878V156.415H812.683V147.878H821.22ZM812.683 147.878V156.415H804.146V147.878H812.683ZM812.683 156.415V164.951H804.146V156.415H812.683ZM804.146 156.415V164.951H795.61V156.415H804.146ZM804.146 164.951V173.488H795.61V164.951H804.146ZM812.683 164.951V173.488H804.146V164.951H812.683ZM804.146 182.024V190.561H795.61V182.024H804.146ZM812.683 182.024V190.561H804.146V182.024H812.683ZM812.683 190.561V199.098H804.146V190.561H812.683ZM821.22 190.561V199.098H812.683V190.561H821.22ZM821.22 199.098V207.634H812.683V199.098H821.22ZM829.756 199.098V207.634H821.22V199.098H829.756ZM829.756 207.634V216.171H821.22V207.634H829.756ZM829.756 216.171V224.707H821.22V216.171H829.756ZM829.756 224.707V233.244H821.22V224.707H829.756ZM821.22 224.707V233.244H812.683V224.707H821.22ZM821.22 216.171V224.707H812.683V216.171H821.22ZM812.683 233.244V241.78H804.146V233.244H812.683ZM812.683 224.707V233.244H804.146V224.707H812.683ZM812.683 241.78V250.317H804.146V241.78H812.683ZM804.146 241.78V250.317H795.61V241.78H804.146ZM804.146 233.244V241.78H795.61V233.244H804.146ZM795.61 241.78V250.317H787.073V241.78H795.61ZM812.683 250.317V258.854H804.146V250.317H812.683ZM821.22 250.317V258.854H812.683V250.317H821.22ZM829.756 250.317V258.854H821.22V250.317H829.756ZM829.756 241.78V250.317H821.22V241.78H829.756ZM838.293 241.78V250.317H829.756V241.78H838.293ZM838.293 233.244V241.78H829.756V233.244H838.293ZM846.829 233.244V241.78H838.293V233.244H846.829ZM846.829 224.707V233.244H838.293V224.707H846.829ZM855.366 224.707V233.244H846.829V224.707H855.366ZM863.902 224.707V233.244H855.366V224.707H863.902ZM872.439 224.707V233.244H863.902V224.707H872.439ZM872.439 233.244V241.78H863.902V233.244H872.439ZM880.976 233.244V241.78H872.439V233.244H880.976ZM880.976 241.78V250.317H872.439V241.78H880.976ZM889.512 241.78V250.317H880.976V241.78H889.512ZM889.512 250.317V258.854H880.976V250.317H889.512ZM898.049 250.317V258.854H889.512V250.317H898.049ZM898.049 241.78V250.317H889.512V241.78H898.049ZM906.585 241.78V250.317H898.049V241.78H906.585ZM915.122 241.78V250.317H906.585V241.78H915.122ZM923.659 241.78V250.317H915.122V241.78H923.659ZM923.659 250.317V258.854H915.122V250.317H923.659ZM915.122 233.244V241.78H906.585V233.244H915.122ZM906.585 233.244V241.78H898.049V233.244H906.585ZM906.585 224.707V233.244H898.049V224.707H906.585ZM898.049 224.707V233.244H889.512V224.707H898.049ZM889.512 224.707V233.244H880.976V224.707H889.512ZM889.512 216.171V224.707H880.976V216.171H889.512ZM880.976 224.707V233.244H872.439V224.707H880.976ZM898.049 233.244V241.78H889.512V233.244H898.049ZM889.512 233.244V241.78H880.976V233.244H889.512ZM846.829 207.634V216.171H838.293V207.634H846.829ZM855.366 207.634V216.171H846.829V207.634H855.366ZM863.902 207.634V216.171H855.366V207.634H863.902ZM872.439 207.634V216.171H863.902V207.634H872.439ZM880.976 207.634V216.171H872.439V207.634H880.976ZM889.512 207.634V216.171H880.976V207.634H889.512ZM880.976 216.171V224.707H872.439V216.171H880.976ZM872.439 216.171V224.707H863.902V216.171H872.439ZM863.902 216.171V224.707H855.366V216.171H863.902ZM855.366 216.171V224.707H846.829V216.171H855.366ZM846.829 216.171V224.707H838.293V216.171H846.829ZM838.293 216.171V224.707H829.756V216.171H838.293ZM838.293 207.634V216.171H829.756V207.634H838.293ZM838.293 224.707V233.244H829.756V224.707H838.293ZM829.756 233.244V241.78H821.22V233.244H829.756ZM821.22 241.78V250.317H812.683V241.78H821.22ZM821.22 233.244V241.78H812.683V233.244H821.22ZM898.049 216.171V224.707H889.512V216.171H898.049ZM898.049 199.098V207.634H889.512V199.098H898.049ZM898.049 190.561V199.098H889.512V190.561H898.049ZM906.585 190.561V199.098H898.049V190.561H906.585ZM906.585 182.024V190.561H898.049V182.024H906.585ZM915.122 182.024V190.561H906.585V182.024H915.122ZM915.122 173.488V182.024H906.585V173.488H915.122ZM923.659 173.488V182.024H915.122V173.488H923.659ZM923.659 164.951V173.488H915.122V164.951H923.659ZM923.659 156.415V164.951H915.122V156.415H923.659ZM923.659 147.878V156.415H915.122V147.878H923.659ZM923.659 139.341V147.878H915.122V139.341H923.659ZM923.659 130.805V139.341H915.122V130.805H923.659ZM915.122 130.805V139.341H906.585V130.805H915.122ZM906.585 130.805V139.341H898.049V130.805H906.585ZM898.049 130.805V139.341H889.512V130.805H898.049ZM889.512 130.805V139.341H880.976V130.805H889.512ZM889.512 139.341V147.878H880.976V139.341H889.512ZM889.512 147.878V156.415H880.976V147.878H889.512ZM889.512 156.415V164.951H880.976V156.415H889.512ZM889.512 164.951V173.488H880.976V164.951H889.512ZM889.512 173.488V182.024H880.976V173.488H889.512ZM880.976 173.488V182.024H872.439V173.488H880.976ZM880.976 182.024V190.561H872.439V182.024H880.976ZM872.439 182.024V190.561H863.902V182.024H872.439ZM872.439 190.561V199.098H863.902V190.561H872.439ZM863.902 190.561V199.098H855.366V190.561H863.902ZM855.366 190.561V199.098H846.829V190.561H855.366ZM846.829 182.024V190.561H838.293V182.024H846.829ZM838.293 182.024V190.561H829.756V182.024H838.293ZM838.293 173.488V182.024H829.756V173.488H838.293ZM829.756 182.024V190.561H821.22V182.024H829.756ZM821.22 182.024V190.561H812.683V182.024H821.22ZM829.756 190.561V199.098H821.22V190.561H829.756ZM838.293 190.561V199.098H829.756V190.561H838.293ZM846.829 190.561V199.098H838.293V190.561H846.829ZM846.829 199.098V207.634H838.293V199.098H846.829ZM838.293 199.098V207.634H829.756V199.098H838.293ZM855.366 199.098V207.634H846.829V199.098H855.366ZM863.902 199.098V207.634H855.366V199.098H863.902ZM872.439 199.098V207.634H863.902V199.098H872.439ZM880.976 199.098V207.634H872.439V199.098H880.976ZM889.512 199.098V207.634H880.976V199.098H889.512ZM889.512 190.561V199.098H880.976V190.561H889.512ZM880.976 190.561V199.098H872.439V190.561H880.976ZM898.049 139.341V147.878H889.512V139.341H898.049ZM906.585 139.341V147.878H898.049V139.341H906.585ZM915.122 139.341V147.878H906.585V139.341H915.122ZM915.122 147.878V156.415H906.585V147.878H915.122ZM915.122 156.415V164.951H906.585V156.415H915.122ZM915.122 164.951V173.488H906.585V164.951H915.122ZM906.585 164.951V173.488H898.049V164.951H906.585ZM906.585 156.415V164.951H898.049V156.415H906.585ZM906.585 147.878V156.415H898.049V147.878H906.585ZM898.049 147.878V156.415H889.512V147.878H898.049ZM898.049 156.415V164.951H889.512V156.415H898.049ZM898.049 164.951V173.488H889.512V164.951H898.049ZM898.049 173.488V182.024H889.512V173.488H898.049ZM906.585 173.488V182.024H898.049V173.488H906.585ZM898.049 182.024V190.561H889.512V182.024H898.049ZM889.512 182.024V190.561H880.976V182.024H889.512ZM795.61 250.317V258.854H787.073V250.317H795.61ZM804.146 250.317V258.854H795.61V250.317H804.146ZM906.585 250.317V258.854H898.049V250.317H906.585ZM915.122 250.317V258.854H906.585V250.317H915.122ZM889.512 258.854V267.39H880.976V258.854H889.512ZM889.512 267.39V275.927H880.976V267.39H889.512ZM889.512 275.927V284.463H880.976V275.927H889.512ZM889.512 284.463V293H880.976V284.463H889.512ZM898.049 284.463V293H889.512V284.463H898.049ZM906.585 284.463V293H898.049V284.463H906.585ZM915.122 284.463V293H906.585V284.463H915.122ZM923.659 284.463V293H915.122V284.463H923.659ZM923.659 275.927V284.463H915.122V275.927H923.659ZM923.659 267.39V275.927H915.122V267.39H923.659ZM923.659 258.854V267.39H915.122V258.854H923.659ZM915.122 258.854V267.39H906.585V258.854H915.122ZM906.585 258.854V267.39H898.049V258.854H906.585ZM898.049 258.854V267.39H889.512V258.854H898.049ZM898.049 267.39V275.927H889.512V267.39H898.049ZM898.049 275.927V284.463H889.512V275.927H898.049ZM906.585 275.927V284.463H898.049V275.927H906.585ZM915.122 275.927V284.463H906.585V275.927H915.122ZM915.122 267.39V275.927H906.585V267.39H915.122ZM906.585 267.39V275.927H898.049V267.39H906.585ZM795.61 258.854V267.39H787.073V258.854H795.61ZM795.61 267.39V275.927H787.073V267.39H795.61ZM795.61 275.927V284.463H787.073V275.927H795.61ZM804.146 275.927V284.463H795.61V275.927H804.146ZM804.146 284.463V293H795.61V284.463H804.146ZM795.61 284.463V293H787.073V284.463H795.61ZM812.683 284.463V293H804.146V284.463H812.683ZM821.22 284.463V293H812.683V284.463H821.22ZM829.756 284.463V293H821.22V284.463H829.756ZM829.756 275.927V284.463H821.22V275.927H829.756ZM829.756 267.39V275.927H821.22V267.39H829.756ZM829.756 258.854V267.39H821.22V258.854H829.756ZM821.22 258.854V267.39H812.683V258.854H821.22ZM821.22 267.39V275.927H812.683V267.39H821.22ZM821.22 275.927V284.463H812.683V275.927H821.22ZM812.683 275.927V284.463H804.146V275.927H812.683ZM812.683 267.39V275.927H804.146V267.39H812.683ZM812.683 258.854V267.39H804.146V258.854H812.683ZM804.146 267.39V275.927H795.61V267.39H804.146ZM804.146 258.854V267.39H795.61V258.854H804.146Z" fill="black"/>
</svg>
